<svg width="50" height="74" viewBox="0 0 50 74" fill="none" xmlns="http://www.w3.org/2000/svg">
<g id="BWH Logo">
<g id="Group">
<path id="Vector" d="M6.82692 27.7952H0.25V39.5269V50.1757H6.82692V27.7952Z" fill="#009CA6"/>
<path id="Vector_2" d="M14.4424 27.7952V39.5269V50.1757H21.1924V27.7952H14.4424Z" fill="#009CA6"/>
<path id="Vector_3" d="M28.8077 27.7952V39.5269V50.1757H35.3847V27.7952H28.8077Z" fill="#009CA6"/>
<path id="Vector_4" d="M0.25 23.4634H25H49.75V17.1463H0.25V23.4634Z" fill="#009CA6"/>
<path id="Vector_5" d="M25 0L0.25 8.48293V15.161L25 6.49756L49.75 15.161V8.48293L25 0Z" fill="#009CA6"/>
<path id="Vector_6" d="M49.75 49.6342C49.5769 49.9951 47.1538 54.3268 31.4038 54.3268H18.5962C2.32692 54.5073 0.596154 56.6732 0.25 56.8537V63.3512C0.596154 63.1707 2.32692 61.0049 18.5962 60.8244H31.4038C47.1538 60.8244 49.5769 56.4927 49.75 56.1317V49.6342Z" fill="#009CA6"/>
<path id="Vector_7" d="M49.75 60.2829C49.5769 60.6439 47.1538 64.9756 31.4038 64.9756H18.5962C2.32692 65.1561 0.596154 67.322 0.25 67.5024V74C0.596154 73.8195 2.32692 71.6537 18.5962 71.4732H31.4038C47.1538 71.4732 49.5769 67.1415 49.75 66.7805V60.2829Z" fill="#009CA6"/>
<path id="Vector_8" d="M43 27.7952V49.0927C48.3654 47.8293 49.5769 45.844 49.5769 45.483V27.7952H43Z" fill="#009CA6"/>
</g>
</g>
</svg>
