<svg id="wave" style="transform:rotate(0deg); transition: 0.3s" viewBox="0 0 1440 410" version="1.1" xmlns="http://www.w3.org/2000/svg"><defs><linearGradient id="sw-gradient-0" x1="0" x2="0" y1="1" y2="0"><stop stop-color="rgba(140.458, 208.435, 255, 1)" offset="0%"></stop><stop stop-color="rgba(11, 114.477, 255, 1)" offset="100%"></stop></linearGradient></defs><path style="transform:translate(0, 0px); opacity:1" fill="url(#sw-gradient-0)" d="M0,246L30,239.2C60,232,120,219,180,232.3C240,246,300,287,360,273.3C420,260,480,191,540,198.2C600,205,660,287,720,293.8C780,301,840,232,900,170.8C960,109,1020,55,1080,75.2C1140,96,1200,191,1260,218.7C1320,246,1380,205,1440,191.3C1500,178,1560,191,1620,170.8C1680,150,1740,96,1800,123C1860,150,1920,260,1980,280.2C2040,301,2100,232,2160,170.8C2220,109,2280,55,2340,47.8C2400,41,2460,82,2520,109.3C2580,137,2640,150,2700,164C2760,178,2820,191,2880,218.7C2940,246,3000,287,3060,287C3120,287,3180,246,3240,211.8C3300,178,3360,150,3420,164C3480,178,3540,232,3600,273.3C3660,314,3720,342,3780,348.5C3840,355,3900,342,3960,328C4020,314,4080,301,4140,259.7C4200,219,4260,150,4290,116.2L4320,82L4320,410L4290,410C4260,410,4200,410,4140,410C4080,410,4020,410,3960,410C3900,410,3840,410,3780,410C3720,410,3660,410,3600,410C3540,410,3480,410,3420,410C3360,410,3300,410,3240,410C3180,410,3120,410,3060,410C3000,410,2940,410,2880,410C2820,410,2760,410,2700,410C2640,410,2580,410,2520,410C2460,410,2400,410,2340,410C2280,410,2220,410,2160,410C2100,410,2040,410,1980,410C1920,410,1860,410,1800,410C1740,410,1680,410,1620,410C1560,410,1500,410,1440,410C1380,410,1320,410,1260,410C1200,410,1140,410,1080,410C1020,410,960,410,900,410C840,410,780,410,720,410C660,410,600,410,540,410C480,410,420,410,360,410C300,410,240,410,180,410C120,410,60,410,30,410L0,410Z"></path><defs><linearGradient id="sw-gradient-1" x1="0" x2="0" y1="1" y2="0"><stop stop-color="rgba(102.908, 182.634, 223.481, 1)" offset="0%"></stop><stop stop-color="rgba(11, 122.743, 255, 1)" offset="100%"></stop></linearGradient></defs><path style="transform:translate(0, 50px); opacity:0.9" fill="url(#sw-gradient-1)" d="M0,82L30,88.8C60,96,120,109,180,123C240,137,300,150,360,150.3C420,150,480,137,540,136.7C600,137,660,150,720,191.3C780,232,840,301,900,321.2C960,342,1020,314,1080,259.7C1140,205,1200,123,1260,116.2C1320,109,1380,178,1440,225.5C1500,273,1560,301,1620,300.7C1680,301,1740,273,1800,280.2C1860,287,1920,328,1980,348.5C2040,369,2100,369,2160,321.2C2220,273,2280,178,2340,164C2400,150,2460,219,2520,205C2580,191,2640,96,2700,102.5C2760,109,2820,219,2880,246C2940,273,3000,219,3060,184.5C3120,150,3180,137,3240,109.3C3300,82,3360,41,3420,61.5C3480,82,3540,164,3600,164C3660,164,3720,82,3780,95.7C3840,109,3900,219,3960,259.7C4020,301,4080,273,4140,280.2C4200,287,4260,328,4290,348.5L4320,369L4320,410L4290,410C4260,410,4200,410,4140,410C4080,410,4020,410,3960,410C3900,410,3840,410,3780,410C3720,410,3660,410,3600,410C3540,410,3480,410,3420,410C3360,410,3300,410,3240,410C3180,410,3120,410,3060,410C3000,410,2940,410,2880,410C2820,410,2760,410,2700,410C2640,410,2580,410,2520,410C2460,410,2400,410,2340,410C2280,410,2220,410,2160,410C2100,410,2040,410,1980,410C1920,410,1860,410,1800,410C1740,410,1680,410,1620,410C1560,410,1500,410,1440,410C1380,410,1320,410,1260,410C1200,410,1140,410,1080,410C1020,410,960,410,900,410C840,410,780,410,720,410C660,410,600,410,540,410C480,410,420,410,360,410C300,410,240,410,180,410C120,410,60,410,30,410L0,410Z"></path></svg>
